<?xml version="1.0" encoding="UTF-8"?>
<svg width="512" height="512" viewBox="0 0 24 24" fill="none" xmlns="http://www.w3.org/2000/svg">
  <circle cx="12" cy="12" r="12" fill="#06B6D4"/>
  <path d="M7 12.5C7 10.0147 9.01472 8 11.5 8C13.9853 8 16 10.0147 16 12.5C16 14.9853 13.9853 17 11.5 17C9.01472 17 7 14.9853 7 12.5Z" fill="white"/>
  <path d="M15.5 7C16.8807 7 18 8.11929 18 9.5C18 10.8807 16.8807 12 15.5 12C14.1193 12 13 10.8807 13 9.5C13 8.11929 14.1193 7 15.5 7Z" fill="white"/>
  <path d="M8.5 7C9.88071 7 11 8.11929 11 9.5C11 10.8807 9.88071 12 8.5 12C7.11929 12 6 10.8807 6 9.5C6 8.11929 7.11929 7 8.5 7Z" fill="white"/>
</svg>